<svg width="558" height="655" viewBox="0 0 558 655" fill="none" xmlns="http://www.w3.org/2000/svg">
<path d="M558 279C558 433.087 433.087 558 279 558C124.913 558 0 433.087 0 279C0 124.913 124.913 0 279 0C433.087 0 558 124.913 558 279Z" fill="#EFC738"/>
<path d="M412.78 153.63L413.293 237H407.307L407.82 153.63H393.8V195.46C393.8 215.572 394.045 232.736 394.367 237H388.307L388.82 153.63H384.37C379 153.63 376.8 151.21 376.8 145.3C376.8 142.17 376.49 141.53 375.22 142.02C374.35 142.36 343.49 142.63 306.65 142.63H239.66L241.95 145.88C243.2 147.67 244.58 149.28 245.01 149.46C246.41 150.06 245.87 153.4 242.18 166.89C240.15 174.31 238.28 183.87 237.93 188.63L237.3 197.13L229.8 197.75L229.57 320.94C229.45 388.69 229.34 446.83 229.32 450.13L229.3 456.13L236 456.42L242.71 456.72L243 462.92L243.3 469.13L259.3 470.13L259.59 477.88L259.88 485.63H265.41C270.57 485.63 270.92 485.78 270.62 487.88L270.3 490.13L207.26 490.39C161.44 490.57 143.91 490.34 143.09 489.52C140.76 487.19 142.87 485.63 148.36 485.63H153.72L154.01 477.88L154.3 470.13L171.3 469.13L171.6 462.88L171.9 456.63H184.8V197.75L177.3 197.13L177.01 189.45C176.73 182.12 176.82 181.77 179.01 181.45C181.3 181.13 181.3 181.09 181.57 161.88L181.84 142.63H121.86L121.58 154.88L121.3 167.13H79.3001L78.7601 125.63H81.5602C83.1002 125.63 85.2401 125.01 86.3301 124.25C87.4101 123.5 95.5001 118.85 104.3 113.92C113.1 108.99 139.31 94.06 162.55 80.73L204.81 56.5L216.55 59.11C253.58 67.32 345 87.37 360.8 90.74C370.97 92.91 384.25 95.77 390.3 97.1C433.7 106.64 442.76 108.6 446.3 109.18C449.76 109.76 452.22 111.75 464.55 123.98C472.39 131.75 478.8 138.85 478.8 139.76C478.8 140.67 478.09 141.69 477.22 142.02C476.35 142.36 463.97 142.63 449.72 142.63H423.8V145.5C423.8 149.91 420.33 153.63 416.22 153.63H412.78ZM230.95 135.88C231.46 136.84 232.37 137.63 232.97 137.63C233.58 137.63 239.92 131.55 247.05 124.13L260.03 110.63H340.36C384.54 110.63 420.91 110.26 421.2 109.8C421.48 109.34 399.34 104.13 372.01 98.21C320.63 87.1 276.18 77.4 233.85 68.08C220.41 65.12 209.28 62.82 209.12 62.97C208.97 63.13 209.92 66.82 211.23 71.19C212.54 75.56 215.72 86.33 218.29 95.13C225.17 118.63 229.91 133.9 230.95 135.88ZM96.8001 124.88C96.8001 125.29 103.78 125.63 112.3 125.63H127.8V120.71C127.8 120.18 127.79 119.68 127.79 119.22C127.76 117.08 127.74 115.63 128.41 114.65C129.81 112.6 134.22 112.61 147.86 112.63C149.27 112.63 150.79 112.63 152.41 112.63H175.8V125.63H180.26C183.5 125.63 184.98 125.15 185.65 123.88C186.16 122.92 188.66 114.03 191.2 104.13C193.74 94.23 197.13 81.29 198.74 75.38C200.35 69.47 201.34 64.63 200.94 64.63C200.54 64.63 191.46 69.72 180.76 75.93C170.06 82.15 146.79 95.53 129.05 105.68C111.31 115.82 96.8001 124.46 96.8001 124.88ZM186.8 142.63V181.63H210.3C229.92 181.63 233.8 181.4 233.8 180.21C233.8 179.43 234.07 178.1 234.39 177.26C234.88 175.98 233.76 175.67 227.64 175.43L220.3 175.13V148.13L236.85 147.13L235.27 144.88C233.7 142.66 233.42 142.63 210.24 142.63H186.8ZM158.8 474.63V485.63H254.8V474.63H158.8ZM176.3 467.63C176.92 469.57 177.81 469.63 207.37 469.63H237.8V461.63H207.37C177.81 461.63 176.92 461.69 176.3 463.63C175.95 464.73 175.95 466.53 176.3 467.63ZM122.47 136.96C122.83 137.33 136.34 137.63 152.49 137.63H181.85L182.82 135.06C183.36 133.65 183.8 132.08 183.8 131.56C183.8 131.01 171.36 130.63 152.8 130.63H121.8V133.46C121.8 135.02 122.1 136.6 122.47 136.96ZM242.8 136.83C242.8 137.86 278.52 137.88 279.16 136.85C279.82 135.79 262.95 117.63 261.29 117.63C259.92 117.63 242.8 135.4 242.8 136.83ZM433.36 136.73C434.06 137.85 468.49 137.93 469.19 136.81C469.87 135.7 451.3 117.29 449.98 117.76C448.02 118.46 432.8 135.82 433.36 136.73ZM337.81 136.88C337.8 137.91 372.56 137.84 373.19 136.81C373.74 135.92 356.74 116.7 355.65 116.97C354.68 117.21 337.83 136.02 337.81 136.88ZM291.42 136.83C292.01 137.77 325.17 137.93 326.1 136.99C327.06 136.04 309.69 117.5 308.16 117.84C306.33 118.24 290.82 135.85 291.42 136.83ZM385.8 136.05C385.8 136.37 393.71 136.63 403.38 136.63C413.05 136.63 420.82 136.24 420.63 135.77C420 134.13 404.07 117.63 403.12 117.63C402.14 117.63 385.8 135.01 385.8 136.05ZM417.47 125.11C422.33 130.32 426.53 134.6 426.82 134.61C427.49 134.64 443.8 116.96 443.8 116.2C443.8 115.89 435.89 115.63 426.22 115.63H408.65L417.47 125.11ZM326.01 128.38C329.3 131.81 332.35 134.41 332.77 134.15C333.2 133.88 337.26 129.61 341.78 124.65L350.02 115.63H314.62L317.32 118.88C318.8 120.67 322.71 124.94 326.01 128.38ZM370.5 125.38C375.18 130.47 379.3 134.62 379.65 134.62C380.68 134.59 397.09 116.58 396.56 116.06C396.3 115.8 388.41 115.7 379.03 115.86L361.98 116.13L370.5 125.38ZM276.48 125.48L285.15 134.83L302.53 116.13L294.22 115.84C289.64 115.68 281.83 115.68 276.85 115.84L267.81 116.13L276.48 125.48ZM181.8 186.63V192.66L207.05 192.4L232.3 192.13L232.62 189.38L232.93 186.63H181.8ZM133.49 124.99C133.87 125.36 142.3 125.55 152.24 125.4L170.3 125.13L170.92 117.63H132.8V120.96C132.8 122.8 133.11 124.61 133.49 124.99ZM188.3 136.38C188.82 137.87 217.33 138.2 218.24 136.73C218.94 135.59 194.96 121.45 192.98 121.84C191.41 122.15 187.54 134.19 188.3 136.38ZM108.8 130.63V162.63H116.8V130.63H108.8ZM224.8 152.63V170.63H236.4L238.6 162.24C239.81 157.62 240.8 153.57 240.8 153.24C240.8 152.9 237.2 152.63 232.8 152.63H224.8ZM83.8001 130.51V162.63H91.8501L91.3001 131.13L83.8001 130.51ZM96.4702 161.88C96.7202 162.29 98.4701 162.63 100.36 162.63H103.8V130.51L96.3001 131.13L96.1601 146.13C96.0901 154.38 96.2302 161.47 96.4702 161.88ZM382.2 146.11L382.85 148.68L400.57 148.4L418.3 148.13L418.62 144.8L418.94 141.47L400.69 142.06C390.66 142.39 382.25 142.85 382 143.09C381.76 143.34 381.85 144.69 382.2 146.11ZM216.95 409.29C220.41 412.77 223.59 415.63 224.02 415.63C224.45 415.63 224.8 409.97 224.8 403.05C224.8 395.69 224.41 390.6 223.87 390.8C223.35 390.98 220.17 393.79 216.8 397.04L210.67 402.94L216.95 409.29ZM217.02 336.35C220.44 339.8 223.59 342.63 224.02 342.63C224.45 342.63 224.8 337.01 224.8 330.13C224.8 323.25 224.47 317.63 224.08 317.63C223.68 317.63 220.53 320.43 217.08 323.85L210.8 330.07L217.02 336.35ZM217.02 445.35C220.44 448.8 223.59 451.63 224.02 451.63C224.45 451.63 224.8 446.01 224.8 439.13C224.8 432.25 224.47 426.63 224.08 426.63C223.68 426.63 220.53 429.43 217.08 432.85L210.8 439.07L217.02 445.35ZM216.96 372.29C220.42 375.78 223.59 378.63 224.02 378.63C224.45 378.63 224.8 373.23 224.8 366.63C224.8 359.78 224.4 354.63 223.86 354.63C223.34 354.63 220.16 357.18 216.8 360.29L210.68 365.96L216.96 372.29ZM189.8 353.15V380.11L196.54 373.37L203.28 366.63L196.54 359.89L189.8 353.15ZM196.54 432.89L189.8 426.15V453.11L196.54 446.37L203.28 439.63L196.54 432.89ZM193.8 114.72C193.8 116.42 194.25 116.74 196.05 116.3C197.29 116 201.68 115.45 205.8 115.07C209.92 114.68 213.64 114.17 214.06 113.93C214.88 113.47 199.32 100.63 197.94 100.63C197.01 100.63 193.8 111.54 193.8 114.72ZM189.8 403.24V415.85L196.05 410.09C199.49 406.92 202.47 403.9 202.67 403.38C203.06 402.37 191.92 390.63 190.58 390.63C190.15 390.63 189.8 396.3 189.8 403.24ZM189.8 330.37V343.11L196.51 336.4L203.23 329.68L197.07 323.66C193.68 320.34 190.66 317.63 190.36 317.63C190.05 317.63 189.8 323.36 189.8 330.37ZM217.52 300.85C220.66 304.03 223.59 306.63 224.02 306.63C224.45 306.63 224.8 301.46 224.8 295.13C224.8 288.22 224.41 283.63 223.81 283.63C222.5 283.63 211.99 292.86 211.88 294.1C211.84 294.64 214.37 297.67 217.52 300.85ZM189.8 282.46V306.92L195.55 301.6C198.71 298.67 201.72 295.91 202.24 295.46C203.29 294.56 199.51 290.21 193.55 285.45L189.8 282.46ZM217.3 236.19C220.6 239.15 223.64 241.59 224.05 241.61C224.46 241.62 224.8 236.9 224.8 231.13C224.8 223.37 224.47 220.64 223.55 220.68C222.86 220.7 219.82 222.99 216.8 225.76L211.3 230.79L217.3 236.19ZM217.31 267.35C220.51 270.25 223.5 272.63 223.96 272.63C224.42 272.63 224.8 267.9 224.8 262.13C224.8 256.36 224.44 251.63 224 251.63C223.56 251.63 220.57 253.98 217.35 256.85L211.49 262.06L217.31 267.35ZM189.8 262.13C189.8 267.9 190.06 272.63 190.38 272.63C190.7 272.63 193.66 270.28 196.96 267.41L202.96 262.19L197.13 256.95C193.92 254.07 190.96 251.69 190.55 251.67C190.14 251.65 189.8 256.36 189.8 262.13ZM189.8 231.21V241.8L193.55 238.76C195.61 237.1 198.59 234.67 200.18 233.37L203.05 231.02L197.18 225.84C193.94 222.99 190.96 220.65 190.55 220.64C190.14 220.64 189.8 225.39 189.8 231.21ZM208.55 102.54C212.26 105.33 215.61 107.62 215.98 107.62C216.6 107.63 212.2 90.11 211.14 88.38C210.89 87.97 210.26 87.63 209.75 87.63C208.47 87.63 201.86 94.86 201.83 96.3C201.81 96.94 204.84 99.75 208.55 102.54ZM212.98 126.92C218.11 129.97 222.8 132.51 223.41 132.55C224.12 132.6 223.77 130.08 222.42 125.51L220.33 118.4L212.81 119.07C208.68 119.44 204.93 120.11 204.48 120.56C204.03 121 207.86 123.86 212.98 126.92ZM189.8 203.63C189.8 206.93 189.93 209.63 190.08 209.63C190.24 209.63 193.03 206.93 196.3 203.63L202.24 197.63H189.8V203.63ZM217.8 203.13C220.79 206.15 223.58 208.63 224.02 208.63C224.45 208.63 224.8 206.15 224.8 203.13V197.63H212.37L217.8 203.13ZM209.47 345.96C210.35 346.84 218.27 346.82 219.16 345.94C220.03 345.06 211.82 336.63 210.09 336.63C208.73 336.63 208.19 344.69 209.47 345.96ZM209.47 381.96C210.35 382.84 218.27 382.82 219.16 381.94C220.03 381.06 211.82 372.63 210.09 372.63C208.73 372.63 208.19 380.69 209.47 381.96ZM200.8 87.64C200.8 89.1 206.33 84.31 207.83 81.55C208.64 80.06 207.07 72.57 205.65 71.15C205.05 70.55 200.8 84.98 200.8 87.64ZM209.57 456.07C210.46 456.95 218.62 456.72 219.2 455.8C219.74 454.92 211.12 445.94 210.46 446.69C209.76 447.49 209 455.49 209.57 456.07ZM209.47 211.96C210.39 212.88 218.81 212.81 218.76 211.88C218.73 211.47 216.93 209.11 214.74 206.63C211.48 202.94 210.59 202.4 209.8 203.63C208.69 205.34 208.47 210.97 209.47 211.96ZM210.05 309.97C211.87 310.7 216.02 310.6 218.12 309.77C219.67 309.16 219.2 308.43 214.94 304.84C212.19 302.53 209.68 300.63 209.37 300.63C208.19 300.63 208.83 309.48 210.05 309.97ZM194.81 455.93C194.81 456.38 196.94 456.6 199.55 456.43L204.3 456.13L204.6 451.38C204.79 448.42 204.5 446.63 203.81 446.63C202.6 446.63 194.83 454.66 194.81 455.93ZM209.47 417.96C209.83 418.33 212.4 418.63 215.17 418.63H220.22L215.8 414.13C213.37 411.66 210.8 409.63 210.09 409.63C208.74 409.63 208.21 416.7 209.47 417.96ZM194.8 345.89C194.8 346.36 196.94 346.6 199.55 346.43L204.3 346.13L204.6 341.38C204.77 338.77 204.56 336.63 204.14 336.63C203.09 336.63 194.8 344.85 194.8 345.89ZM196.93 418.91C203.63 420.18 204.8 419.45 204.8 414.02C204.8 411.61 204.44 409.63 204.01 409.63C203.57 409.63 201.27 411.62 198.88 414.04C194.69 418.31 194.63 418.47 196.93 418.91ZM194.8 381.8C194.8 382.32 196.94 382.6 199.55 382.43L204.3 382.13L204.61 377.88C204.79 375.37 204.48 373.63 203.86 373.63C202.5 373.63 194.8 380.57 194.8 381.8ZM199.05 355.66C201.39 357.83 203.64 359.61 204.05 359.62C204.46 359.62 204.8 357.6 204.8 355.13V350.63H199.8C197.05 350.63 194.8 350.87 194.8 351.17C194.8 351.47 196.71 353.49 199.05 355.66ZM208.8 319.13C208.8 321.6 209.08 323.63 209.42 323.63C210.29 323.63 217.14 317.59 218.1 315.98C218.73 314.92 217.81 314.63 213.85 314.63H208.8V319.13ZM198.8 208.13L194.38 212.63H204.8V208.13C204.8 205.65 204.44 203.63 204.01 203.63C203.57 203.63 201.23 205.65 198.8 208.13ZM208.8 392.13C208.8 394.6 209.16 396.63 209.59 396.63C210.03 396.63 212.37 394.6 214.8 392.13L219.22 387.63H208.8V392.13ZM198.8 428.13C201.23 430.6 203.57 432.63 204.01 432.63C204.44 432.63 204.8 430.6 204.8 428.13V423.63H194.38L198.8 428.13ZM198.41 309.88C200.55 310.1 202.75 310.21 203.3 310.12C204.51 309.94 205.26 300.63 204.06 300.63C203.6 300.63 201.26 302.62 198.87 305.06L194.52 309.49L198.41 309.88ZM198.76 319.09C201.16 321.54 203.51 323.31 203.97 323.03C204.42 322.74 204.8 320.74 204.8 318.57V314.63H194.38L198.76 319.09ZM199.5 392.84C201.54 394.92 203.56 396.63 204 396.63C204.44 396.63 204.8 394.6 204.8 392.13V387.63H200.3C197.82 387.63 195.8 387.95 195.8 388.34C195.8 388.73 197.47 390.75 199.5 392.84ZM209.8 423.63V432.8L213.65 429.75C220.62 424.23 220.75 423.63 214.92 423.63H209.8ZM209.68 357.13C209.74 358.51 210.02 359.63 210.3 359.63C211.26 359.63 218.8 352.39 218.8 351.46C218.8 350.94 216.66 350.66 214.05 350.83C210.25 351.07 209.32 351.48 209.42 352.88C209.49 353.84 209.61 355.75 209.68 357.13ZM208.8 252.63C208.8 254.83 209.05 256.63 209.36 256.63C210.69 256.63 217.69 250.26 217.21 249.49C216.92 249.02 214.91 248.63 212.74 248.63C208.81 248.63 208.8 248.64 208.8 252.63ZM210.55 243.85C211.51 244.05 213.2 244.12 214.3 244C215.4 243.89 216.73 243.76 217.25 243.71C218.65 243.59 211.63 236.63 210.1 236.63C207.99 236.63 208.41 243.4 210.55 243.85ZM199.04 284.16C201.09 286.07 203.23 287.63 203.79 287.63C204.34 287.63 204.8 286.05 204.8 284.13V280.63L200.05 280.66L195.3 280.68L199.04 284.16ZM196.55 244.05C196.92 244.42 198.82 244.59 200.76 244.43C204.07 244.15 204.32 243.88 204.61 240.38C204.78 238.32 204.56 236.64 204.11 236.65C202.66 236.69 195.85 243.35 196.55 244.05ZM199.22 221.17C201.37 223.07 203.51 224.63 203.97 224.63C204.42 224.63 204.8 223.05 204.8 221.13V217.63L195.3 217.71L199.22 221.17ZM209.55 284.91L210.02 288.68L218.3 281.13L213.94 280.82C211.55 280.65 209.47 280.65 209.33 280.82C209.2 280.99 209.3 282.83 209.55 284.91ZM209.33 274.68C210.07 275.88 216.49 275.93 217.23 274.74C217.7 273.98 211.79 268.63 210.48 268.63C209.67 268.63 208.71 273.68 209.33 274.68ZM208.81 223.38C208.79 225.65 211.36 224.68 214.8 221.13L218.19 217.63H214.11C210.04 217.63 208.86 218.9 208.81 223.38ZM196.8 275C196.8 275.41 198.49 275.61 200.55 275.44C203.97 275.16 204.33 274.85 204.61 271.88C204.83 269.64 204.5 268.63 203.55 268.63C202.13 268.63 196.8 273.66 196.8 275ZM199.3 252.63C200.88 254.28 202.76 255.63 203.49 255.63C204.28 255.63 204.8 254.44 204.8 252.63C204.8 249.77 204.6 249.63 200.61 249.63H196.43L199.3 252.63Z" fill="#070402"/>
<rect x="383" y="237" width="34" height="34" fill="black"/>
<path d="M261 113L223 113" stroke="black" stroke-width="4"/>
<rect x="348" y="304" width="106" height="56" rx="3" fill="black"/>
<path d="M385 269L350.5 306M415 269L452 306" stroke="black" stroke-width="4"/>
<path d="M76.1136 609.75H66.1591C65.9773 608.462 65.6061 607.318 65.0455 606.318C64.4849 605.303 63.7652 604.439 62.8864 603.727C62.0076 603.015 60.9924 602.47 59.8409 602.091C58.7045 601.712 57.4697 601.523 56.1364 601.523C53.7273 601.523 51.6288 602.121 49.8409 603.318C48.053 604.5 46.6667 606.227 45.6818 608.5C44.697 610.758 44.2045 613.5 44.2045 616.727C44.2045 620.045 44.697 622.833 45.6818 625.091C46.6818 627.348 48.0758 629.053 49.8636 630.205C51.6515 631.356 53.7197 631.932 56.0682 631.932C57.3864 631.932 58.6061 631.758 59.7273 631.409C60.8636 631.061 61.8712 630.553 62.75 629.886C63.6288 629.205 64.3561 628.379 64.9318 627.409C65.5227 626.439 65.9318 625.333 66.1591 624.091L76.1136 624.136C75.8561 626.273 75.2121 628.333 74.1818 630.318C73.1667 632.288 71.7955 634.053 70.0682 635.614C68.3561 637.159 66.3106 638.386 63.9318 639.295C61.5682 640.189 58.8939 640.636 55.9091 640.636C51.7576 640.636 48.0455 639.697 44.7727 637.818C41.5152 635.939 38.9394 633.22 37.0455 629.659C35.1667 626.098 34.2273 621.788 34.2273 616.727C34.2273 611.652 35.1818 607.333 37.0909 603.773C39 600.212 41.5909 597.5 44.8636 595.636C48.1364 593.758 51.8182 592.818 55.9091 592.818C58.6061 592.818 61.1061 593.197 63.4091 593.955C65.7273 594.712 67.7803 595.818 69.5682 597.273C71.3561 598.712 72.8106 600.477 73.9318 602.568C75.0682 604.659 75.7955 607.053 76.1136 609.75ZM125.943 616.727C125.943 621.803 124.981 626.121 123.057 629.682C121.148 633.242 118.542 635.962 115.239 637.841C111.951 639.705 108.254 640.636 104.148 640.636C100.011 640.636 96.2992 639.697 93.0114 637.818C89.7235 635.939 87.125 633.22 85.2159 629.659C83.3068 626.098 82.3523 621.788 82.3523 616.727C82.3523 611.652 83.3068 607.333 85.2159 603.773C87.125 600.212 89.7235 597.5 93.0114 595.636C96.2992 593.758 100.011 592.818 104.148 592.818C108.254 592.818 111.951 593.758 115.239 595.636C118.542 597.5 121.148 600.212 123.057 603.773C124.981 607.333 125.943 611.652 125.943 616.727ZM115.966 616.727C115.966 613.439 115.473 610.667 114.489 608.409C113.519 606.152 112.148 604.439 110.375 603.273C108.602 602.106 106.527 601.523 104.148 601.523C101.769 601.523 99.6932 602.106 97.9205 603.273C96.1477 604.439 94.7689 606.152 93.7841 608.409C92.8144 610.667 92.3295 613.439 92.3295 616.727C92.3295 620.015 92.8144 622.788 93.7841 625.045C94.7689 627.303 96.1477 629.015 97.9205 630.182C99.6932 631.348 101.769 631.932 104.148 631.932C106.527 631.932 108.602 631.348 110.375 630.182C112.148 629.015 113.519 627.303 114.489 625.045C115.473 622.788 115.966 620.015 115.966 616.727ZM172.165 593.455V640H163.665L143.415 610.705H143.074V640H133.233V593.455H141.869L161.96 622.727H162.369V593.455H172.165ZM221.364 609.75H211.409C211.227 608.462 210.856 607.318 210.295 606.318C209.735 605.303 209.015 604.439 208.136 603.727C207.258 603.015 206.242 602.47 205.091 602.091C203.955 601.712 202.72 601.523 201.386 601.523C198.977 601.523 196.879 602.121 195.091 603.318C193.303 604.5 191.917 606.227 190.932 608.5C189.947 610.758 189.455 613.5 189.455 616.727C189.455 620.045 189.947 622.833 190.932 625.091C191.932 627.348 193.326 629.053 195.114 630.205C196.902 631.356 198.97 631.932 201.318 631.932C202.636 631.932 203.856 631.758 204.977 631.409C206.114 631.061 207.121 630.553 208 629.886C208.879 629.205 209.606 628.379 210.182 627.409C210.773 626.439 211.182 625.333 211.409 624.091L221.364 624.136C221.106 626.273 220.462 628.333 219.432 630.318C218.417 632.288 217.045 634.053 215.318 635.614C213.606 637.159 211.561 638.386 209.182 639.295C206.818 640.189 204.144 640.636 201.159 640.636C197.008 640.636 193.295 639.697 190.023 637.818C186.765 635.939 184.189 633.22 182.295 629.659C180.417 626.098 179.477 621.788 179.477 616.727C179.477 611.652 180.432 607.333 182.341 603.773C184.25 600.212 186.841 597.5 190.114 595.636C193.386 593.758 197.068 592.818 201.159 592.818C203.856 592.818 206.356 593.197 208.659 593.955C210.977 594.712 213.03 595.818 214.818 597.273C216.606 598.712 218.061 600.477 219.182 602.568C220.318 604.659 221.045 607.053 221.364 609.75ZM228.42 640V593.455H246.784C250.299 593.455 253.299 594.083 255.784 595.341C258.284 596.583 260.186 598.348 261.489 600.636C262.807 602.909 263.466 605.583 263.466 608.659C263.466 611.75 262.799 614.409 261.466 616.636C260.133 618.848 258.201 620.545 255.67 621.727C253.155 622.909 250.11 623.5 246.534 623.5H234.239V615.591H244.943C246.822 615.591 248.383 615.333 249.625 614.818C250.867 614.303 251.792 613.53 252.398 612.5C253.019 611.47 253.33 610.189 253.33 608.659C253.33 607.114 253.019 605.811 252.398 604.75C251.792 603.689 250.86 602.886 249.602 602.341C248.36 601.78 246.792 601.5 244.898 601.5H238.261V640H228.42ZM253.557 618.818L265.125 640H254.261L242.943 618.818H253.557ZM270.42 640V593.455H301.784V601.568H280.261V612.659H300.17V620.773H280.261V631.886H301.875V640H270.42ZM307.835 601.568V593.455H346.062V601.568H331.812V640H322.085V601.568H307.835ZM352.358 640V593.455H383.722V601.568H362.199V612.659H382.108V620.773H362.199V631.886H383.812V640H352.358Z" fill="black"/>
<path d="M404.636 640V593.455H420.364C424.015 593.455 427 594.114 429.318 595.432C431.652 596.735 433.379 598.5 434.5 600.727C435.621 602.955 436.182 605.439 436.182 608.182C436.182 610.924 435.621 613.417 434.5 615.659C433.394 617.902 431.682 619.689 429.364 621.023C427.045 622.341 424.076 623 420.455 623H409.182V618H420.273C422.773 618 424.78 617.568 426.295 616.705C427.811 615.841 428.909 614.674 429.591 613.205C430.288 611.72 430.636 610.045 430.636 608.182C430.636 606.318 430.288 604.652 429.591 603.182C428.909 601.712 427.803 600.561 426.273 599.727C424.742 598.879 422.712 598.455 420.182 598.455H410.273V640H404.636ZM445.261 640V593.455H450.898V614.182H475.716V593.455H481.352V640H475.716V619.182H450.898V640H445.261ZM492.636 640V593.455H508.364C512.015 593.455 515 594.114 517.318 595.432C519.652 596.735 521.379 598.5 522.5 600.727C523.621 602.955 524.182 605.439 524.182 608.182C524.182 610.924 523.621 613.417 522.5 615.659C521.394 617.902 519.682 619.689 517.364 621.023C515.045 622.341 512.076 623 508.455 623H497.182V618H508.273C510.773 618 512.78 617.568 514.295 616.705C515.811 615.841 516.909 614.674 517.591 613.205C518.288 611.72 518.636 610.045 518.636 608.182C518.636 606.318 518.288 604.652 517.591 603.182C516.909 601.712 515.803 600.561 514.273 599.727C512.742 598.879 510.712 598.455 508.182 598.455H498.273V640H492.636Z" fill="#8605F8"/>
</svg>
